<?xml version="1.0" encoding="UTF-8"?>
<!DOCTYPE svg  PUBLIC '-//W3C//DTD SVG 1.1//EN'  'http://www.w3.org/Graphics/SVG/1.1/DTD/svg11.dtd'>
<svg width="152.17mm" height="39.645mm" clip-rule="evenodd" fill-rule="evenodd" image-rendering="optimizeQuality" shape-rendering="geometricPrecision" text-rendering="geometricPrecision" viewBox="0 0 164.69 42.908" xml:space="preserve" xmlns="http://www.w3.org/2000/svg">
 <defs>
  <style type="text/css">
   <![CDATA[
    .fil0 {fill:#1976d2}
   ]]>
  </style>
 </defs>



   <path class="fil0" d="m23.884 14.208-3.8255 14.335h-4.0762l1.8936-7.0708h-3.9421l0.85069-3.2264h3.941l1.0816-4.0376h4.0769zm-8.7715 0-3.825 14.335h-4.0762l3.8251-14.335h4.0761z"/>
   <path class="fil0" d="m34.227 14.208c1.642 4.5155 1.6776 9.6088 1.1979 14.335h-4.0768c0-0.54559 0.019806-1.1534 0.15488-1.6804-0.025975-0.025975-0.025975-0.051193 0-0.07706-0.009416-0.20802-0.012122-0.45911 0.038638-0.65782h-4.0379c0.46074-1.0258 1.0412-1.9906 1.5455-2.9938h2.4923c0-1.4191-0.14644-2.8716-0.48314-4.251-2.1501 2.9885-4.0956 6.2441-5.4866 9.66h-4.0769c1.127-2.5753 2.5036-5.0596 3.9566-7.4635 1.4524-2.4011 3.0311-4.7665 4.8919-6.8713h3.8836z"/>
   <polygon class="fil0" points="48.125 14.208 47.275 17.414 43.855 17.414 40.88 28.543 36.803 28.543 39.778 17.414 36.36 17.414 37.209 14.208"/>
   <path class="fil0" d="m55.855 14.208c1.6416 4.5155 1.6776 9.6088 1.1979 14.335h-4.0762c0-0.54559 0.019373-1.1534 0.15401-1.6804-0.025218-0.025975-0.025218-0.051193 0-0.07706-0.008442-0.20802-0.012014-0.45911 0.038638-0.65782h-4.0378c0.46139-1.0258 1.0415-1.9906 1.5462-2.9938h2.4916c0-1.4191-0.14633-2.8716-0.48314-4.251-2.1498 2.9885-4.0948 6.2441-5.4866 9.66h-4.0762c1.127-2.5753 2.5028-5.0596 3.9566-7.4635 1.4517-2.4011 3.0303-4.7665 4.8923-6.8713h3.8827z"/>
   <path class="fil0" d="m100.27 27.916h2.7751l3.4896-13.08h-2.9313c-0.53617 0-1.1735 0.41983-1.7363 0.78987-0.13929 0.091779-0.25228 0.16613-0.36268 0.23464-1.1786 0.74268-2.3428 1.6084-3.5566 2.6496l-1.5395 1.3202 1.3362-4.9943h-2.7759l-3.4889 13.08h2.774c0.51886-1.9899 1.3313-5.0775 1.417-5.2556 0.24601-0.51226 0.73759-0.91552 1.172-1.2711 0.1157-0.095676 0.22263-0.18399 0.31701-0.26711 1.5547-1.3939 3.1486-2.5354 4.7372-3.3904l1.2811-0.68835-2.9082 10.872zm3.2575 0.62774h-4.0762l2.7434-10.259v6.4938e-4c-1.5441 0.83132-3.0976 1.9441-4.6171 3.3055-0.10033 0.089074-0.21332 0.18269-0.33346 0.28097-0.38671 0.31755-0.8219 0.67449-1.0073 1.0606-0.080956 0.21376-0.90416 3.3339-1.4372 5.3771l-0.060393 0.23443h-4.0781l3.825-14.335h4.0762l-1.0238 3.825c1.2385-1.0609 2.4263-1.9459 3.6317-2.7041 0.10693-0.066345 0.21581-0.13875 0.3288-0.21267 0.65923-0.43368 1.3799-0.90816 2.1041-0.90816h3.75l-3.8256 14.335z"/>
   <path class="fil0" d="m106.88 27.916h2.7766l3.4888-13.08h-2.7764l-3.489 13.08zm3.2583 0.62774h-4.0767l3.8249-14.335h4.0769l-3.8251 14.335z"/>
   <path class="fil0" d="m115.65 27.916h2.7759l3.4896-13.08h-2.7766l-1.0824 4.0375h-3.9393l-0.51886 1.9707h3.9453l-1.8936 7.0714zm3.2576 0.62774h-4.0755l1.893-7.0706h-3.942l0.85112-3.2271h3.9406l1.0817-4.0376h4.0769l-3.8257 14.335z"/>
   <path class="fil0" d="m128.68 27.864h2.6582l2.5992-9.721 0.34829-0.08442c1.0359-0.24969 2.1023-0.016018 2.7791 0.60934 0.56745 0.52405 0.8087 1.2695 0.67839 2.1001-0.19795 1.2558-0.88294 2.4066-1.788 3.0046-0.54938 0.36138-1.182 0.52622-1.8251 0.48704l-0.43779 1.6517c1.4292 0.062341 2.7308-0.25185 3.9725-0.96206 1.3667-0.78218 2.2731-2.166 2.7693-4.2296 0.16873-0.69971 0.33281-1.6026 0.11353-2.3832-0.21127-0.7535-0.92754-1.3481-1.526-1.6538-1.0059-0.51496-2.2358-0.51236-3.4244-0.5089l-1.1408 0.0012988 0.38801-1.4438h-2.6584l-0.38801 1.443h-0.60458c-1.4093-0.0012988-2.8591-0.0012988-4.1382 0.5089-1.5671 0.62525-2.9073 2.0225-3.4961 3.6451-0.55544 1.5334-1.0695 3.4243-0.10617 4.4521 0.84052 0.89766 2.4902 1.3776 3.9019 1.1536l0.45522-1.7176c-0.71226-0.040586-1.3202-0.31679-1.671-0.76465-0.82114-1.0519-0.13951-2.7442 0.192-3.4212 0.73694-1.5088 2.6405-2.3746 4.3319-1.972l0.60133 0.14351-2.5845 9.662zm3.1202 0.60133h-3.9029l2.6265-9.8221c-1.428-0.34017-3.035 0.38606-3.6524 1.6498-0.15661 0.32155-0.90416 1.9614-0.25759 2.7886 0.25369 0.32491 0.73001 0.52091 1.3082 0.53758l0.076411 0.0044374c0.072406 0.0047621 0.14016 0.0086584 0.2038 0.009416l0.38216 0.0086584-0.74333 2.8117-0.18421 0.03734c-1.6623 0.33876-3.6184-0.20607-4.6429-1.2995-1.1865-1.2651-0.63326-3.3733-0.018724-5.0682 0.64397-1.7787 2.1148-3.3115 3.837-3.9978 1.3868-0.55349 2.8969-0.54483 4.3612-0.55208h0.14427l0.38801-1.4431h3.9029l-0.38811 1.4424h0.33086c1.2943-0.0059527 2.5886-0.0059527 3.724 0.57481 0.71237 0.36333 1.5674 1.0862 1.8318 2.0272 0.25651 0.91336 0.076411 1.9154-0.10834 2.6862-0.53747 2.2338-1.5368 3.7427-3.0556 4.6109-1.4538 0.83186-2.9859 1.1649-4.6815 1.0153l-0.35532-0.030521 0.75805-2.861 0.26571 0.040478c0.60338 0.089074 1.168-0.031279 1.6743-0.36484 0.76822-0.5076 1.352-1.5021 1.5242-2.5964 0.099031-0.62525-0.075761-1.1814-0.4918-1.5642-0.53195-0.49093-1.3886-0.66973-2.2302-0.46701l-2.6264 9.8221z"/>
   <path class="fil0" d="m150.87 17.502c-0.57016 0-1.1662 0.1381-1.6832 0.40586h-5.4115e-4c-1.7314 0.89712-2.685 3.2962-2.7321 5.2031-0.031279 1.2193 0.38465 2.0604 1.1713 2.3693 0.79008 0.31095 1.9229 0.22339 2.7654-0.21397 1.7708-0.91682 2.7301-3.4169 2.7341-5.3045 5.4115e-4 -0.82612-0.20077-1.8916-1.1662-2.2678-0.32945-0.1289-0.7035-0.192-1.089-0.192zm-2.1619 8.7696c-0.46582 0-0.91552-0.080415-1.3016-0.23183-1.0391-0.40868-1.5906-1.4538-1.5527-2.9433 0.051193-2.0838 1.1181-4.7188 3.0576-5.7214 1.0132-0.52481 2.2947-0.61994 3.2654-0.24125 0.70772 0.27653 1.5507 0.9915 1.5481 2.8292-0.0032469 2.0642-1.0764 4.8108-3.0583 5.8362-0.58661 0.30413-1.2829 0.47232-1.9586 0.47232zm3.0118-11.253c-2.9335 0-5.6882 1.455-7.1898 3.7984-1.4491 2.2578-2.7028 6.3207-0.22057 8.2654 2.2392 1.754 5.91 1.1568 8.2281-0.29709 2.3496-1.4757 3.8861-4.124 4.11-7.0867 0.10704-1.4064-0.29828-2.5864-1.1727-3.4163-0.79917-0.7575-1.962-1.1914-3.3618-1.255-0.1315-0.0054115-0.26181-0.0086584-0.39342-0.0086584zm-3.9293 13.735c-1.4066 0-2.7746-0.35478-3.8515-1.1978-2.7985-2.1921-1.4817-6.621 0.08561-9.0626 1.6823-2.6259 4.8535-4.2171 8.1151-4.0657 1.5468 0.070999 2.8425 0.56139 3.7487 1.4191 1.0094 0.95827 1.4796 2.3062 1.3593 3.8982-0.23973 3.1507-1.8802 5.9731-4.3911 7.5491-1.3978 0.87818-3.2642 1.459-5.066 1.4596z"/>
   <path class="fil0" d="m88.856 24.258c1.2656-1.0538 1.4469-2.946 0.40456-4.225-1.0412-1.2804-2.9115-1.4644-4.1772-0.41063-1.2659 1.0537-1.4473 2.946-0.40532 4.2255 1.0417 1.2806 2.9126 1.4638 4.1779 0.41008z"/>
   <path class="fil0" d="m70.872 2.1616c0.5141-0.4287 0.5878-1.1972 0.16451-1.717-0.42318-0.52016-1.1833-0.59451-1.6975-0.16668-0.51485 0.42848-0.58791 1.1974-0.16473 1.7175 0.42318 0.5194 1.1833 0.59462 1.6977 0.16613z"/>
   <path class="fil0" d="m73.933 5.9227c0.63585-0.52892 0.72688-1.4783 0.20326-2.1215-0.52286-0.64235-1.4624-0.73467-2.0975-0.20575-0.63585 0.52881-0.72623 1.479-0.20336 2.122 0.52221 0.64256 1.4624 0.73434 2.0976 0.20531z"/>
   <path class="fil0" d="m77.011 9.7052c0.76854-0.63921 0.87818-1.7879 0.24568-2.5646-0.63239-0.77742-1.768-0.88836-2.5353-0.24915-0.76887 0.63975-0.87905 1.7886-0.24655 2.5654 0.63315 0.77666 1.7686 0.88814 2.5362 0.24839z"/>
   <path class="fil0" d="m80.531 14.03c0.91152-0.75934 1.0417-2.1214 0.29157-3.0436-0.75004-0.92093-2.0975-1.0537-3.0091-0.29439-0.91152 0.75891-1.0416 2.1209-0.29168 3.043 0.75014 0.92234 2.0977 1.0545 3.0092 0.29493z"/>
   <path class="fil0" d="m84.54 18.957c1.111-0.92418 1.2698-2.584 0.35554-3.7069-0.91357-1.1229-2.5548-1.2835-3.6642-0.35932-1.1095 0.92342-1.2698 2.584-0.35619 3.7061 0.91422 1.1228 2.5547 1.2843 3.6649 0.36008z"/>
   <path class="fil0" d="m83.461 28.749c1.2658-1.0537 1.4472-2.946 0.40522-4.2258-1.0416-1.2796-2.912-1.4644-4.1777-0.40987-1.2658 1.0538-1.4472 2.946-0.40532 4.2255 1.0417 1.2798 2.9122 1.4638 4.1778 0.41008z"/>
   <path class="fil0" d="m68.538 10.414c0.63585-0.52892 0.72677-1.4796 0.20401-2.1214-0.52362-0.64246-1.4631-0.73488-2.0983-0.20585-0.6351 0.52936-0.72547 1.4788-0.20326 2.1214 0.52286 0.64235 1.4623 0.73467 2.0975 0.20585z"/>
   <path class="fil0" d="m71.617 14.196c0.768-0.63845 0.87818-1.7871 0.24579-2.5639-0.63239-0.77742-1.7682-0.88836-2.5362-0.24915-0.768 0.63975-0.87818 1.7879-0.24579 2.5646 0.63261 0.7772 1.7679 0.88836 2.5362 0.24839z"/>
   <path class="fil0" d="m75.137 18.521c0.91152-0.7588 1.0416-2.1214 0.29146-3.0436-0.74993-0.92147-2.0975-1.0538-3.009-0.29428-0.91152 0.75805-1.0417 2.1207-0.29179 3.0429 0.75014 0.92234 2.0977 1.0545 3.0094 0.29493z"/>
   <path class="fil0" d="m79.146 23.447c1.1103-0.92342 1.2699-2.5832 0.35564-3.7061-0.91368-1.1229-2.5548-1.2835-3.6651-0.35932-1.1095 0.92342-1.269 2.5838-0.35532 3.7061 0.91422 1.1234 2.5546 1.2843 3.6648 0.35932z"/>
   <path class="fil0" d="m78.067 33.241c1.2659-1.054 1.4464-2.946 0.40532-4.2258-1.0417-1.2803-2.912-1.4644-4.1779-0.41052-1.2656 1.0543-1.4469 2.9467-0.40511 4.2256 1.0417 1.2804 2.9113 1.4636 4.1777 0.41063z"/>
   <path class="fil0" d="m66.223 18.688c0.768-0.63975 0.87818-1.7879 0.24579-2.5646-0.63272-0.77742-1.7682-0.88836-2.5362-0.24915-0.76811 0.63986-0.87829 1.7879-0.24579 2.5646 0.63261 0.7772 1.7679 0.88814 2.5362 0.24915z"/>
   <path class="fil0" d="m69.743 23.013c0.91152-0.75934 1.0417-2.1214 0.29157-3.0437-0.74993-0.92158-2.0975-1.0537-3.0091-0.29439-0.91152 0.75826-1.0416 2.1209-0.29168 3.0431 0.75014 0.92158 2.0977 1.0544 3.0092 0.29493z"/>
   <path class="fil0" d="m73.752 27.939c1.1102-0.92418 1.2698-2.584 0.35554-3.7061-0.91357-1.1235-2.5548-1.2843-3.665-0.35932-1.1095 0.92342-1.269 2.5838-0.35543 3.7059 0.91422 1.1229 2.5547 1.2845 3.6649 0.35954z"/>
   <path class="fil0" d="m72.673 37.732c1.265-1.0537 1.4472-2.9454 0.40467-4.225-1.0411-1.2803-2.9115-1.4642-4.1779-0.40998-1.265 1.0537-1.4464 2.9454-0.40446 4.2258 1.0411 1.2795 2.912 1.463 4.1777 0.40922z"/>
   <path class="fil0" d="m64.348 27.504c0.91152-0.76021 1.0416-2.1222 0.29146-3.0438-0.75014-0.92158-2.0975-1.0537-3.009-0.29493-0.91152 0.75859-1.0425 2.1214-0.29168 3.043 0.75014 0.92223 2.0976 1.0545 3.0092 0.29569z"/>
   <path class="fil0" d="m68.357 32.43c1.1102-0.92418 1.269-2.584 0.35554-3.706-0.91368-1.1236-2.5548-1.2844-3.665-0.35954-1.1101 0.92277-1.2691 2.5832-0.35543 3.706 0.91422 1.1229 2.5546 1.2837 3.6649 0.35954z"/>
   <path class="fil0" d="m67.278 42.223c1.2664-1.0537 1.4478-2.9454 0.40532-4.225-1.0419-1.2803-2.9115-1.4645-4.1774-0.41074-1.2662 1.0537-1.4469 2.9461-0.40586 4.2265 1.0425 1.2796 2.9128 1.463 4.1779 0.40922z"/>
   <path class="fil0" d="m62.963 36.922c1.1102-0.92418 1.269-2.5838 0.35564-3.7067-0.91368-1.1229-2.5549-1.2837-3.6651-0.35932-1.11 0.92418-1.269 2.5838-0.35543 3.7067 0.91422 1.1228 2.5547 1.2836 3.6649 0.35932z"/>
   <polygon class="fil0" points="-0 32.18 -0 32.474 57.173 33.062 57.321 33.064 57.321 31.591"/>
   <polygon class="fil0" points="90.66 31.592 90.66 33.063 164.69 32.474 164.69 32.18"/>


</svg>
